<?xml version="1.0" encoding="utf-8"?>
<!-- Generator: Adobe Illustrator 16.0.3, SVG Export Plug-In . SVG Version: 6.00 Build 0)  -->
<!DOCTYPE svg PUBLIC "-//W3C//DTD SVG 1.1//EN" "http://www.w3.org/Graphics/SVG/1.1/DTD/svg11.dtd">
<svg version="1.1" id="Capa_1" xmlns="http://www.w3.org/2000/svg" xmlns:xlink="http://www.w3.org/1999/xlink" x="0px" y="0px"
	 width="179.812px" height="272.54px" viewBox="0 0 179.812 272.54" enable-background="new 0 0 179.812 272.54"
	 xml:space="preserve">
<g>
	<path fill="#2E2E2E" d="M179.24,79.496C174.076,34.589,135.415-0.139,90.127,0C57.099,0.101,26.63,18.143,11.095,46.619
		C-2.823,72.132-2.728,98.582,6.29,125.321c18.117,53.725,49.144,100.278,81.898,145.829c1.853,2.576,2.732,1.08,3.885-0.556
		c6.033-8.563,12.267-16.99,18.138-25.662c23.597-34.856,45.589-70.63,60.199-110.36C176.922,116.867,181.463,98.814,179.24,79.496z
		 M90.141,160.501C51.12,160.462,19.311,129,19.203,90.333c-0.11-39.084,31.589-70.77,70.772-70.74
		c39.276,0.027,70.85,31.658,70.708,70.834C160.543,128.91,128.701,160.541,90.141,160.501z"/>
	<path fill="#2E2E2E" d="M48.966,109.628c8.33-0.108,16.661-0.042,24.992-0.043c7.165-0.002,14.331,0.074,21.494-0.045
		c2.411-0.04,6.026,1.27,6.978-0.691c1.27-2.618-0.789-5.73-2.609-8.142c-1.188-1.575-2.585-3.06-4.123-4.292
		c-11.384-9.121-30.992-9.107-42.43-0.05c-3.364,2.663-5.609,6.009-6.805,10.185C45.719,109.154,46.532,109.66,48.966,109.628z"/>
	<path fill="#2E2E2E" d="M107.089,116.968c-0.038-2.889-1.058-4.77-4.321-4.891c-9.441-0.351-18.746-0.229-26.193,6.89
		c-1.449,1.384-2.521,1.54-4.154,0.118c-6.492-5.651-14.112-7.818-22.665-6.991c-3.467,0.335-7.787-1.081-7.892,4.815
		c-0.111,6.266,4.585,5.054,8.2,5.105c8.16,0.117,16.588,0.037,24.588,0.037c0-0.03,0-0.06,0-0.089c9,0,18.555-0.041,27.883,0.021
		C106.038,122.007,107.131,120.137,107.089,116.968z"/>
	<path fill="#2E2E2E" d="M98.164,124.653c-2.182,1.112-4.415,1.573-6.733,0.71c-5.968-2.221-12.274,1.909-18.21-1.008
		c-0.324-0.159-0.931,0.268-1.41,0.407c-6.164,1.803-12.545-1.412-18.701,0.799c-0.244,0.087-0.624-0.178-0.932-0.299
		c-1.613-0.635-3.682-2.372-4.792-0.298c-0.933,1.744,0.732,3.73,2.148,5.198c1.652,1.712,3.797,1.849,6.009,1.838
		c6.326-0.03,12.652-0.011,18.979-0.007c6.492,0.004,12.985-0.027,19.478,0.018c3.074,0.021,5.611-0.871,6.922-3.85
		c0.49-1.115,1.764-2.376,0.523-3.596C100.537,123.671,99.183,124.134,98.164,124.653z"/>
	<path fill="#2E2E2E" d="M109.288,59.917c2.369,0.234,2.229-1.47,2.126-2.943c-0.165-2.344,1.469-3.551,2.861-4.939
		c3.516-3.503,7.016-7.021,10.555-10.5c0.924-0.908,1.525-1.655,0.254-2.797c-0.957-0.86-1.542-1.428-2.764-0.158
		c-4.471,4.646-9.065,9.174-13.662,13.696c-1.27,1.249-0.783,2.761-0.951,4.243C108.082,57.693,106.791,59.671,109.288,59.917z"/>
	<path fill="#2E2E2E" d="M130.461,66.494c-1.566-0.119-2.412-0.753-3.048-2.041c-1.194-2.42-3.259-2.963-5.806-2.92
		c-6.478,0.109-12.961-0.039-19.438,0.068c-4.289,0.072-9.23-1.471-11.604,4.195c-0.19,0.453-1.463,0.527-2.252,0.641
		c-4.03,0.572-1.998,3.966-2.618,5.99c-0.856,2.796,1.892,1.846,3.227,2.314c13.689,0,27.378,0.001,41.066,0.002
		c1.385-0.412,3.962,0.364,3.178-2.408C132.588,70.293,134.527,66.804,130.461,66.494z"/>
	<path fill="#2E2E2E" d="M129.985,76.425c-13.688,0-27.374-0.002-41.063-0.003c-1.773,1.751-0.222,3.701-0.358,5.546
		c-0.357,4.824,1.482,7.659,6.11,9.822c5.722,2.674,9.622,7.625,11.093,13.986c0.455,1.967,0.891,3.518,2.507,5.052
		c3.184,3.022,3.419,9.771,0.122,12.194c-3.146,2.313-3.755,5.505-5.401,8.992c6.812,0,13.271-0.08,19.727,0.04
		c2.577,0.048,2.989-1.425,3.182-3.431c1.591-16.534,3.214-33.064,4.81-49.6C130.803,78.095,131.217,77.013,129.985,76.425z"/>
	<path fill="#2E2E2E" d="M75.462,85.373c0.846-3.271,3.312-5.487,5.028-8.178c2.22-3.481,2.079-5.658-0.713-9.004
		C82.294,75.075,73.021,78.402,75.462,85.373z"/>
	<path fill="#2E2E2E" d="M73.185,68.714c0.058,4.419-3.54,6.404-3.566,10.124C74.124,73.339,74.124,73.339,73.185,68.714z"/>
</g>
</svg>
